REM MD5 1bfa19ec736028bddf45034bd2d27415
FILE "Sankyo Fever - Jikki Simulation Vol. 3 (Japan).bin" BINARY
  TRACK 01 MODE2/2352
    INDEX 01 00:00:00
  TRACK 02 AUDIO
    INDEX 00 09:28:55
    INDEX 01 09:30:55
  TRACK 03 AUDIO
    INDEX 00 14:48:45
    INDEX 01 14:50:45
REM LEADOUT 20:34:44
